HIERARCHY
ROOT Hips
{
	OFFSET 0.000000 0.000000 0.000000
	CHANNELS 6 Xposition Yposition Zposition Xrotation Yrotation Zrotation
	JOINT Chest
	{
		OFFSET 0.000000 0.009282 11.569106
		CHANNELS 3 Xrotation Yrotation Zrotation
		JOINT Chest2
		{
			OFFSET 0.000000 -0.016863 9.269641
			CHANNELS 3 Xrotation Yrotation Zrotation
			JOINT Chest3
			{
				OFFSET 0.000000 0.000000 8.374491
				CHANNELS 3 Xrotation Yrotation Zrotation
				JOINT Chest4
				{
					OFFSET 0.000000 0.000000 8.374493
					CHANNELS 3 Xrotation Yrotation Zrotation
					JOINT Neck
					{
						OFFSET 0.000000 -0.000001 12.152554
						CHANNELS 3 Xrotation Yrotation Zrotation
						JOINT Head
						{
							OFFSET 0.000000 -0.040100 7.802319
							CHANNELS 3 Xrotation Yrotation Zrotation
							End Site
							{
								OFFSET 0.000000 -0.020946 14.853096
							}
						}
					}
					JOINT RightCollar
					{
						OFFSET -2.894404 0.000000 6.791374
						CHANNELS 3 Xrotation Yrotation Zrotation
						JOINT RightShoulder
						{
							OFFSET -13.574684 0.000000 0.000000
							CHANNELS 3 Xrotation Yrotation Zrotation
							JOINT RightElbow
							{
								OFFSET -23.923903 0.000000 0.000000
								CHANNELS 3 Xrotation Yrotation Zrotation
								JOINT RightWrist
								{
									OFFSET -19.846718 -0.012765 0.000000
									CHANNELS 3 Xrotation Yrotation Zrotation
									End Site
									{
										OFFSET -14.973145 0.000000 0.000000
									}
								}
							}
						}
					}
					JOINT LeftCollar
					{
						OFFSET 2.894404 0.000000 6.791374
						CHANNELS 3 Xrotation Yrotation Zrotation
						JOINT LeftShoulder
						{
							OFFSET 13.574684 0.000000 0.000000
							CHANNELS 3 Xrotation Yrotation Zrotation
							JOINT LeftElbow
							{
								OFFSET 23.923903 0.000000 0.000000
								CHANNELS 3 Xrotation Yrotation Zrotation
								JOINT LeftWrist
								{
									OFFSET 19.846718 -0.012765 0.000000
									CHANNELS 3 Xrotation Yrotation Zrotation
									End Site
									{
										OFFSET 14.973145 0.000000 0.000000
									}
								}
							}
						}
					}
				}
			}
		}
	}
	JOINT RightHip
	{
		OFFSET -9.469263 -0.004642 0.045487
		CHANNELS 3 Xrotation Yrotation Zrotation
		JOINT RightKnee
		{
			OFFSET 0.000000 -0.002666 -40.478676
			CHANNELS 3 Xrotation Yrotation Zrotation
			JOINT RightAnkle
			{
				OFFSET 0.000000 -0.049110 -35.224068
				CHANNELS 3 Xrotation Yrotation Zrotation
				JOINT RightToe
				{
					OFFSET 0.000000 -12.539530 -6.151390
					CHANNELS 3 Xrotation Yrotation Zrotation
					End Site
					{
						OFFSET 0.000000 -5.044995 -1.291870
					}
				}
			}
		}
	}
	JOINT LeftHip
	{
		OFFSET 9.469263 -0.004642 0.045487
		CHANNELS 3 Xrotation Yrotation Zrotation
		JOINT LeftKnee
		{
			OFFSET 0.000000 -0.002666 -40.478676
			CHANNELS 3 Xrotation Yrotation Zrotation
			JOINT LeftAnkle
			{
				OFFSET 0.000000 -0.049110 -35.224068
				CHANNELS 3 Xrotation Yrotation Zrotation
				JOINT LeftToe
				{
					OFFSET 0.000000 -12.539530 -6.151390
					CHANNELS 3 Xrotation Yrotation Zrotation
					End Site
					{
						OFFSET 0.000000 -5.044995 -1.291870
					}
				}
			}
		}
	}
}
MOTION
Frames: 8
Frame Time: 0.016667
-9.083352 -4.564794 83.103043 3.887225 9.860263 -114.946292 3.491105 -0.374111 -0.497337 1.552331 -0.155890 -0.159713 1.552331 -0.155890 -0.159712 1.164288 -0.116513 -0.120183 21.432661 1.235585 1.548033 3.601993 1.817372 3.188271 -0.683826 -2.091863 -1.489825 31.896188 -65.134125 88.463627 8.661868 -10.519083 55.087996 17.124893 -0.338420 -5.660223 0.760830 10.958148 -10.093719 -3.442200 74.640102 -35.256569 -36.991451 35.152996 -12.113337 -40.284729 8.815951 6.251930 11.435996 0.806343 -0.224678 2.793889 -0.338166 -2.628196 -3.921425 -0.735939 5.314528 0.119642 0.125132 -0.019371 12.126869 1.108786 0.312721 3.348070 -1.178850 4.378398 -4.202004 0.316131 -1.378946 0.231392 -0.186223 0.013026 
-9.101195 -4.532898 83.096268 3.815627 9.728234 -114.792230 3.444955 -0.349634 -0.467334 1.531126 -0.143710 -0.148257 1.531125 -0.143710 -0.148249 1.148379 -0.107411 -0.111550 21.471108 1.180322 1.504812 3.674826 1.729492 3.092699 -0.667622 -2.056067 -1.449363 33.219629 -65.356250 90.257487 8.607942 -8.902890 55.509733 17.515766 3.621865 -3.679915 0.766029 10.969102 -10.145084 -3.018487 74.736169 -35.747537 -37.110139 35.091265 -12.070110 -40.331270 8.787570 6.228599 11.388041 0.768836 -0.242024 2.669705 -0.335305 -2.713793 -3.901351 -0.738572 5.271349 0.116454 0.114384 -0.026017 12.103935 1.077579 0.428239 3.104186 -1.197555 4.307763 -4.158503 0.396860 -1.482179 0.233418 -0.197797 0.018164 
-9.119528 -4.505971 83.089745 3.752551 9.613116 -114.638769 3.413255 -0.325731 -0.427727 1.516358 -0.132285 -0.132654 1.516358 -0.132285 -0.132659 1.137297 -0.098885 -0.099822 21.510470 1.131966 1.454370 3.749081 1.656278 2.985922 -0.591247 -2.007694 -1.403373 34.594761 -65.531799 91.957576 8.680284 -7.485922 55.844723 17.366244 8.587458 -1.072662 0.767368 10.980575 -10.197215 -2.374193 74.802558 -36.479665 -37.246234 35.002377 -12.045477 -40.344654 8.782382 6.229224 11.345978 0.737775 -0.254745 2.573056 -0.332365 -2.812671 -3.892168 -0.742961 5.277130 0.112227 0.101412 -0.030400 12.078556 1.042735 0.542398 2.899019 -1.209059 4.255385 -4.127497 0.476014 -1.624204 0.232312 -0.206290 0.021209 
-9.139242 -4.483657 83.083794 3.696059 9.515563 -114.486552 3.398597 -0.304509 -0.382716 1.509236 -0.122401 -0.114094 1.509236 -0.122401 -0.114093 1.131950 -0.091520 -0.085873 21.541691 1.093630 1.397736 3.807907 1.602940 2.870865 -0.534518 -1.948483 -1.384583 36.225288 -65.568341 93.702532 8.922589 -6.041927 56.191707 16.677608 14.030699 1.997493 0.769330 10.990880 -10.243111 -1.558596 74.838164 -37.405913 -37.387749 34.928631 -12.044987 -40.354783 8.766419 6.222096 11.313591 0.708409 -0.273269 2.492009 -0.327604 -2.917573 -3.887397 -0.745877 5.288860 0.107933 0.088629 -0.034972 12.055373 1.018461 0.646399 2.728767 -1.222670 4.213569 -4.107183 0.547984 -1.758696 0.226147 -0.210872 0.024434 
-9.163335 -4.469258 83.078270 3.646258 9.433065 -114.334519 3.388870 -0.287114 -0.332240 1.504135 -0.115096 -0.093296 1.504136 -0.115096 -0.093298 1.128121 -0.086093 -0.070252 21.568392 1.071063 1.332091 3.857935 1.580895 2.743896 -0.428711 -1.898370 -1.370784 37.799787 -65.468237 95.285059 9.352821 -4.360111 56.439018 15.408270 19.606260 5.389524 0.775872 11.008297 -10.295696 -0.745832 74.859474 -38.327938 -37.532409 34.888671 -12.038516 -40.381414 8.736569 6.194710 11.289918 0.684755 -0.300830 2.427140 -0.325543 -3.015614 -3.888753 -0.748435 5.250215 0.103016 0.076668 -0.038364 12.032706 0.999328 0.755842 2.591294 -1.233343 4.172944 -4.100106 0.608026 -1.889297 0.218840 -0.209585 0.025449 
-9.188688 -4.459569 83.072952 3.605269 9.363142 -114.187075 3.391236 -0.283057 -0.281715 1.504653 -0.113724 -0.073067 1.504652 -0.113725 -0.073075 1.128502 -0.085114 -0.055082 21.582052 1.072625 1.256189 3.883173 1.605632 2.605211 -0.329797 -1.853345 -1.356756 39.234587 -65.314435 96.643557 10.043289 -2.473859 56.409446 13.065117 25.218097 9.290170 0.772021 11.038938 -10.333842 -0.021053 74.882198 -39.161235 -37.641019 34.894610 -12.031562 -40.422764 8.704427 6.178919 11.273696 0.673204 -0.328250 2.379363 -0.333422 -3.096916 -3.897216 -0.750980 5.250480 0.097693 0.064597 -0.039811 12.015029 0.982057 0.854434 2.474154 -1.240405 4.144245 -4.101100 0.654670 -2.029929 0.212262 -0.202316 0.026649 
-9.218203 -4.455355 83.068146 3.572834 9.309011 -114.039830 3.416274 -0.282652 -0.237560 1.515035 -0.114865 -0.055789 1.515035 -0.114865 -0.055792 1.136286 -0.086011 -0.042128 21.577944 1.094664 1.179900 3.875035 1.667622 2.471920 -0.280435 -1.814132 -1.345012 40.630480 -65.169232 97.862780 10.840624 -0.801280 56.113464 9.431607 30.614072 14.137323 0.759422 11.057071 -10.355415 0.596476 74.927783 -39.915103 -37.695063 34.909517 -12.036126 -40.432080 8.699508 6.180325 11.266534 0.661736 -0.358989 2.350031 -0.342241 -3.162402 -3.912991 -0.750657 5.232286 0.091287 0.053166 -0.041388 12.010468 0.968635 0.934938 2.370821 -1.243033 4.099976 -4.107927 0.683971 -2.122652 0.205287 -0.190762 0.027898 
-9.248447 -4.452032 83.064362 3.546236 9.271996 -113.894204 3.457016 -0.281605 -0.197008 1.532913 -0.114979 -0.039382 1.532914 -0.114979 -0.039385 1.149692 -0.086137 -0.029825 21.567605 1.126626 1.104129 3.855189 1.747541 2.342522 -0.254339 -1.750134 -1.360445 42.249317 -64.947149 99.171697 11.342475 0.308856 55.636136 4.933078 35.408930 20.354522 0.749061 11.065479 -10.385192 1.205087 74.956395 -40.680945 -37.751139 34.908209 -12.048426 -40.414168 8.732128 6.202823 11.272879 0.649242 -0.403369 2.331084 -0.341494 -3.210963 -3.932918 -0.753181 5.192274 0.084487 0.041525 -0.040780 12.023667 0.954375 0.992927 2.265619 -1.243193 4.044336 -4.105504 0.711193 -2.206650 0.195315 -0.180926 0.029809 
